<?xml version="1.0" encoding="utf-8"?>
<!-- Generator: Adobe Illustrator 23.0.2, SVG Export Plug-In . SVG Version: 6.00 Build 0)  -->
<svg version="1.1" id="レイヤー_1" xmlns="http://www.w3.org/2000/svg" xmlns:xlink="http://www.w3.org/1999/xlink" x="0px"
	 y="0px" viewBox="0 0 900 200" style="enable-background:new 0 0 900 200;" xml:space="preserve">
<style type="text/css">
	.st0{fill:#FFFFFF;}
	.st1{fill:#E60012;}
	.st2{fill:none;stroke:#E60012;stroke-width:9;stroke-miterlimit:10;}
	.st3{fill:none;stroke:#FFFFFF;stroke-width:3;stroke-miterlimit:10;}
</style>
<g id="XMLID_137_">
	<path id="XMLID_164_" class="st0" d="M846.2,110.5c0,0.4-0.1,0.6-0.4,0.7c-0.2,0.1-0.5,0.2-0.7,0.2v0.6h8.9v-0.6
		c-0.4,0-0.7-0.1-1-0.2c-0.3-0.1-0.4-0.3-0.4-0.7v-7h5c0.1,0.2,0.4,0.7,0.8,1.4c0.4,0.7,0.9,1.5,1.3,2.3c0.5,0.8,0.9,1.5,1.2,2.2
		c0.4,0.7,0.5,1.1,0.5,1.3c0,0.3-0.1,0.5-0.4,0.5c-0.3,0.1-0.6,0.1-0.8,0.1v0.6h10.5v-0.6c-0.4,0-0.7-0.1-1.1-0.3s-0.6-0.4-0.8-0.7
		l-4.6-7c1.7-0.6,3-1.5,4.1-2.6c1.1-1.1,1.6-2.6,1.6-4.4c0-2.4-0.8-4.2-2.3-5.4c-1.5-1.2-3.6-1.8-6.2-1.8H845v0.6
		c0.3,0,0.5,0.1,0.8,0.2c0.2,0.1,0.4,0.3,0.4,0.7V110.5z M852.7,99.2v-5.6h7c1.6,0,2.6,0.3,3.1,0.8c0.5,0.5,0.8,1.2,0.8,2
		c0,0.9-0.3,1.6-1,2.1c-0.6,0.5-1.5,0.7-2.6,0.7H852.7z M821.2,107.5v-5.1h9.8c0.2,0,0.4,0.1,0.6,0.2c0.2,0.2,0.3,0.5,0.3,1h0.6
		v-6.7h-0.6c0,0.5-0.1,0.8-0.3,1S831.2,98,831,98h-9.8v-4.2h15.2c0.2,0,0.4,0.1,0.6,0.2s0.3,0.5,0.3,1h0.6v-7h-0.6
		c0,0.5-0.1,0.8-0.3,0.9c-0.2,0.1-0.4,0.2-0.6,0.2h-23.6v0.6c0.4,0,0.7,0.1,1,0.2c0.3,0.1,0.4,0.3,0.4,0.7v19.7
		c0,0.4-0.1,0.6-0.4,0.7c-0.3,0.1-0.6,0.2-1,0.2v0.6H836c0.4,0,0.7,0,0.9,0.1s0.4,0.3,0.5,0.8h0.5v-6.8h-0.6
		c-0.2,0.9-0.7,1.3-1.3,1.3H821.2z M784.3,89.2c-0.2,0-0.4-0.1-0.6-0.2c-0.2-0.1-0.3-0.4-0.3-0.9h-0.6v7.6h0.6
		c0-0.5,0.1-0.8,0.3-0.9c0.2-0.1,0.4-0.2,0.6-0.2h7.4v16c0,0.4-0.1,0.6-0.4,0.7c-0.3,0.1-0.5,0.2-0.8,0.2v0.6h9.3v-0.6
		c-0.3,0-0.5-0.1-0.8-0.2c-0.3-0.1-0.4-0.3-0.4-0.7v-16h7.4c0.2,0,0.4,0.1,0.6,0.2c0.2,0.1,0.3,0.5,0.3,0.9h0.6v-7.6H807
		c0,0.5-0.1,0.8-0.3,0.9c-0.2,0.1-0.4,0.2-0.6,0.2H784.3z M776.2,90.8c0-0.4,0.1-0.6,0.4-0.7c0.3-0.1,0.6-0.2,1-0.2v-0.6h-9.1v0.6
		c0.4,0,0.8,0.1,1,0.2c0.3,0.1,0.4,0.3,0.4,0.7V101c-1.1-1.2-2.2-2.4-3.3-3.5c-1.1-1.2-2.1-2.2-3-3.2c-0.9-1-1.6-1.8-2.2-2.4
		c-0.6-0.6-0.9-1-0.9-1.1c0-0.4,0.1-0.6,0.4-0.7c0.2-0.1,0.5-0.2,0.7-0.2v-0.6h-12.4v0.6c0.4,0,0.7,0.1,1,0.2
		c0.3,0.1,0.4,0.3,0.4,0.7v19.7c0,0.4-0.1,0.6-0.4,0.7c-0.3,0.1-0.6,0.2-0.9,0.2v0.6h8.9v-0.6c-0.4,0-0.7-0.1-1-0.2
		c-0.3-0.1-0.4-0.3-0.4-0.7V96.9l0.1-0.1c1.5,1.7,2.9,3.4,4.4,4.9c1.5,1.5,2.8,2.9,4,4.2s2.2,2.3,2.9,3.1c0.8,0.8,1.1,1.4,1.1,1.7
		s-0.2,0.5-0.5,0.6s-0.7,0.1-1,0.1v0.6h9.6v-0.6c-0.4,0-0.8-0.1-1-0.2c-0.3-0.1-0.4-0.3-0.4-0.7V90.8z M726,107.5v-5.1h9.8
		c0.2,0,0.4,0.1,0.6,0.2c0.2,0.2,0.3,0.5,0.3,1h0.6v-6.7h-0.6c0,0.5-0.1,0.8-0.3,1S736,98,735.8,98H726v-4.2h15.2
		c0.2,0,0.4,0.1,0.6,0.2s0.3,0.5,0.3,1h0.6v-7h-0.6c0,0.5-0.1,0.8-0.3,0.9c-0.2,0.1-0.4,0.2-0.6,0.2h-23.6v0.6c0.4,0,0.7,0.1,1,0.2
		c0.3,0.1,0.4,0.3,0.4,0.7v19.7c0,0.4-0.1,0.6-0.4,0.7c-0.3,0.1-0.6,0.2-1,0.2v0.6h23.2c0.4,0,0.7,0,0.9,0.1s0.4,0.3,0.5,0.8h0.5
		v-6.8h-0.6c-0.2,0.9-0.7,1.3-1.3,1.3H726z M706.5,94.8l4.7-8.6l-0.6-0.2c-0.2,0.3-0.5,0.4-0.8,0.4c-0.3,0-0.7-0.1-1.2-0.3
		c-0.6-0.2-1.3-0.4-2.3-0.7c-1-0.3-2.3-0.5-3.8-0.8c-1.5-0.2-3.3-0.3-5.4-0.3c-2.1,0-4.1,0.3-6.2,0.9c-2,0.6-3.9,1.5-5.5,2.6
		c-1.6,1.2-2.9,2.6-3.9,4.4c-1,1.7-1.5,3.8-1.5,6.1c0,2.3,0.5,4.4,1.5,6.1c1,1.7,2.3,3.2,3.9,4.4c1.6,1.2,3.5,2,5.5,2.5
		c2,0.5,4.1,0.8,6.2,0.8c1.9,0,3.7-0.1,5.2-0.4s2.9-0.6,4.1-0.9c1.2-0.3,2.1-0.6,2.8-0.9c0.7-0.3,1.2-0.4,1.5-0.4
		c0.2,0,0.3,0,0.4,0.1s0.2,0.2,0.3,0.3l0.6-0.4l-5.3-8.2l-0.6,0.4c0.1,0.1,0.1,0.3,0.2,0.4c0.1,0.1,0.1,0.2,0.1,0.4
		c0,0.4-0.4,0.7-1.1,1.1c-0.7,0.3-1.6,0.7-2.6,0.9c-1,0.3-1.9,0.5-2.9,0.6c-1,0.2-1.7,0.2-2.1,0.2c-1,0-2.1-0.1-3.3-0.4
		c-1.1-0.2-2.2-0.6-3.1-1.2c-1-0.6-1.7-1.3-2.3-2.2c-0.6-0.9-0.9-2-0.9-3.3c0-1.3,0.3-2.4,0.9-3.3c0.6-0.9,1.4-1.7,2.3-2.2
		c1-0.6,2-1,3.1-1.2c1.1-0.2,2.2-0.4,3.3-0.4c1.1,0,2.2,0.1,3.2,0.2s1.9,0.3,2.7,0.6c0.8,0.2,1.4,0.5,1.9,0.8
		c0.5,0.3,0.7,0.6,0.7,0.8c0,0.2,0,0.3,0,0.4c0,0.1,0,0.2-0.1,0.3L706.5,94.8z M638,102.6h11.5v7.9c0,0.4-0.1,0.6-0.4,0.7
		c-0.3,0.1-0.6,0.2-1,0.2v0.6h9.9v-0.6c-0.4,0-0.8-0.1-1-0.2c-0.3-0.1-0.4-0.3-0.4-0.7V90.8c0-0.4,0.1-0.6,0.4-0.7
		c0.3-0.1,0.6-0.2,1-0.2v-0.6h-9.9v0.6c0.4,0,0.8,0.1,1,0.2c0.3,0.1,0.4,0.3,0.4,0.7v6.5H638v-6.5c0-0.4,0.1-0.6,0.4-0.7
		c0.3-0.1,0.6-0.2,1-0.2v-0.6h-9.9v0.6c0.4,0,0.8,0.1,1,0.2c0.3,0.1,0.4,0.3,0.4,0.7v19.7c0,0.4-0.1,0.6-0.4,0.7
		c-0.3,0.1-0.6,0.2-1,0.2v0.6h9.9v-0.6c-0.4,0-0.8-0.1-1-0.2c-0.3-0.1-0.4-0.3-0.4-0.7V102.6z M623.3,90.4l-0.6-0.2
		c-0.1,0.1-0.2,0.2-0.3,0.3c-0.1,0.1-0.3,0.2-0.5,0.2c-0.3,0-0.7-0.1-1.4-0.3c-0.7-0.2-1.4-0.4-2.3-0.6c-0.9-0.2-1.9-0.4-3-0.6
		c-1.1-0.2-2.2-0.3-3.3-0.3c-1.9,0-3.8,0.2-5.6,0.6c-1.8,0.4-3.4,1.1-4.9,2.1s-2.6,2.1-3.4,3.6c-0.9,1.5-1.3,3.3-1.3,5.4
		c0,2.1,0.4,4,1.3,5.5s2,2.7,3.4,3.6c1.4,0.9,3,1.6,4.9,1.9s3.7,0.6,5.6,0.6c1.7,0,3.2-0.1,4.5-0.4c1.4-0.3,2.6-0.6,3.6-1
		c1-0.4,1.8-0.7,2.4-1.1c0.6-0.3,1-0.5,1.1-0.5c0.2,0,0.5,0.2,0.8,0.6l0.6-0.4l-4.9-7.1l-0.6,0.4c0,0.1,0.1,0.3,0.1,0.5v0.5
		c0,0.2-0.2,0.4-0.6,0.8c-0.4,0.4-1,0.7-1.7,1.1c-0.7,0.4-1.5,0.7-2.4,0.9s-1.9,0.4-2.9,0.4c-1,0-2-0.1-3-0.4s-1.9-0.6-2.7-1.1
		c-0.8-0.5-1.5-1.2-2-2c-0.5-0.8-0.8-1.7-0.8-2.8c0-1.1,0.3-2.1,0.8-2.8c0.5-0.8,1.2-1.4,2-1.9c0.8-0.5,1.7-0.9,2.7-1.1
		c1-0.2,2-0.4,3-0.4c0.9,0,1.7,0.1,2.6,0.3c0.8,0.2,1.6,0.4,2.3,0.6c0.7,0.2,1.2,0.5,1.7,0.8c0.4,0.3,0.6,0.5,0.6,0.7
		c0,0.2,0,0.3-0.1,0.5c-0.1,0.1-0.1,0.3-0.1,0.4l0.7,0.4L623.3,90.4z M567.9,110.5c0,0.4-0.1,0.6-0.4,0.7c-0.2,0.1-0.5,0.2-0.7,0.2
		v0.6h8.9v-0.6c-0.4,0-0.7-0.1-1-0.2c-0.3-0.1-0.4-0.3-0.4-0.7v-7h5c0.1,0.2,0.4,0.7,0.8,1.4c0.4,0.7,0.9,1.5,1.3,2.3
		c0.5,0.8,0.9,1.5,1.2,2.2c0.4,0.7,0.5,1.1,0.5,1.3c0,0.3-0.1,0.5-0.4,0.5c-0.3,0.1-0.6,0.1-0.8,0.1v0.6h10.5v-0.6
		c-0.4,0-0.7-0.1-1.1-0.3s-0.6-0.4-0.8-0.7l-4.6-7c1.7-0.6,3-1.5,4.1-2.6c1.1-1.1,1.6-2.6,1.6-4.4c0-2.4-0.8-4.2-2.3-5.4
		c-1.5-1.2-3.6-1.8-6.2-1.8h-16.7v0.6c0.3,0,0.5,0.1,0.8,0.2c0.2,0.1,0.4,0.3,0.4,0.7V110.5z M574.4,99.2v-5.6h7
		c1.6,0,2.6,0.3,3.1,0.8c0.5,0.5,0.8,1.2,0.8,2c0,0.9-0.3,1.6-1,2.1c-0.6,0.5-1.5,0.7-2.6,0.7H574.4z M549.4,103.7h-8.6l4.3-9.1
		L549.4,103.7z M552,112.1h8.6v-0.6c-0.2,0-0.4,0-0.6-0.1c-0.2-0.1-0.3-0.2-0.4-0.4c-0.4-0.9-0.9-2-1.5-3.3c-0.6-1.3-1.3-2.7-2-4.2
		c-0.7-1.5-1.4-3-2.1-4.5c-0.7-1.5-1.4-2.8-1.9-4.1c-0.6-1.2-1.1-2.2-1.4-3.1c-0.4-0.8-0.5-1.3-0.5-1.4c0-0.3,0.2-0.5,0.7-0.5v-0.6
		h-10.9v0.6c0.5,0,0.7,0.2,0.7,0.5c0,0.2-0.3,0.9-0.8,2.2c-0.6,1.3-1.3,2.9-2.1,4.8s-1.8,4.1-2.9,6.4c-1.1,2.4-2.1,4.8-3.2,7.2
		c-0.1,0.2-0.2,0.3-0.4,0.4c-0.2,0.1-0.4,0.1-0.6,0.1v0.6h7.8v-0.6c-0.1,0-0.2,0-0.4-0.1c-0.2,0-0.3-0.2-0.3-0.4
		c0-0.1,0.1-0.4,0.2-0.6c0.1-0.3,0.3-0.6,0.5-1c0.2-0.3,0.3-0.7,0.5-1c0.2-0.3,0.3-0.6,0.3-0.9h12c0.1,0.2,0.2,0.5,0.4,0.9
		c0.2,0.3,0.3,0.7,0.5,1c0.2,0.3,0.3,0.7,0.4,1c0.1,0.3,0.2,0.5,0.2,0.6c0,0.2-0.1,0.4-0.3,0.4c-0.2,0-0.3,0.1-0.4,0.1V112.1z
		 M508.3,107.5v-5.1h9.8c0.2,0,0.4,0.1,0.6,0.2c0.2,0.2,0.3,0.5,0.3,1h0.6v-6.7h-0.6c0,0.5-0.1,0.8-0.3,1S518.2,98,518,98h-9.8v-4.2
		h15.2c0.2,0,0.4,0.1,0.6,0.2c0.2,0.2,0.3,0.5,0.3,1h0.6v-7h-0.6c0,0.5-0.1,0.8-0.3,0.9c-0.2,0.1-0.4,0.2-0.6,0.2h-23.6v0.6
		c0.4,0,0.7,0.1,1,0.2c0.3,0.1,0.4,0.3,0.4,0.7v19.7c0,0.4-0.1,0.6-0.4,0.7c-0.3,0.1-0.6,0.2-1,0.2v0.6H523c0.4,0,0.7,0,0.9,0.1
		c0.2,0.1,0.4,0.3,0.5,0.8h0.5v-6.8h-0.6c-0.2,0.9-0.7,1.3-1.3,1.3H508.3z M471.9,104.1l-2.1,7l0.6,0.2c0.2-0.2,0.4-0.3,0.5-0.5
		c0.2-0.2,0.4-0.2,0.6-0.2c0.1,0,0.5,0.1,1.2,0.3c0.7,0.2,1.6,0.4,2.7,0.6c1.1,0.2,2.2,0.4,3.5,0.6c1.3,0.2,2.5,0.2,3.8,0.2
		c2,0,3.7-0.2,5.1-0.5c1.4-0.4,2.6-0.9,3.6-1.6s1.6-1.5,2.1-2.4c0.4-0.9,0.7-1.9,0.7-2.9c0-1.5-0.4-2.7-1.2-3.6
		c-0.8-0.8-1.9-1.5-3.1-1.9c-1.3-0.4-2.6-0.8-4.1-1c-1.5-0.2-2.8-0.4-4.1-0.5c-1.3-0.2-2.3-0.4-3.1-0.6c-0.8-0.3-1.2-0.7-1.2-1.3
		c0-0.6,0.3-1,0.8-1.3c0.5-0.3,1.1-0.5,1.7-0.7c0.7-0.2,1.3-0.2,2-0.3c0.7,0,1.1,0,1.5,0c0.9,0,1.8,0.1,2.6,0.2
		c0.8,0.2,1.6,0.3,2.3,0.5c0.7,0.2,1.2,0.4,1.6,0.6c0.4,0.2,0.6,0.4,0.6,0.5c0,0.1,0,0.2,0,0.3c0,0.1,0,0.2,0,0.3l0.7,0.3l3.1-6.5
		l-0.6-0.2c-0.1,0.1-0.3,0.2-0.5,0.4c-0.2,0.2-0.4,0.2-0.7,0.2c-0.3,0-0.7-0.1-1.4-0.2c-0.6-0.1-1.4-0.3-2.3-0.5
		c-0.9-0.2-1.9-0.3-3.1-0.5c-1.1-0.1-2.3-0.2-3.6-0.2c-2.1,0-3.9,0.3-5.4,0.8c-1.5,0.5-2.7,1.1-3.6,1.9c-0.9,0.8-1.6,1.6-2,2.5
		c-0.4,0.9-0.6,1.8-0.6,2.6c0,1.5,0.4,2.6,1.2,3.4c0.8,0.8,1.9,1.4,3.1,1.9c1.3,0.4,2.6,0.7,4.1,0.9c1.5,0.2,2.8,0.3,4.1,0.5
		c1.3,0.2,2.3,0.4,3.1,0.7s1.2,0.8,1.2,1.5c0,0.5-0.2,0.9-0.5,1.2c-0.4,0.3-0.8,0.5-1.3,0.7c-0.5,0.2-1,0.3-1.6,0.3
		c-0.5,0-1,0.1-1.3,0.1c-1,0-2.2-0.1-3.3-0.2c-1.2-0.2-2.3-0.4-3.3-0.6c-1-0.3-1.9-0.5-2.5-0.9c-0.7-0.3-1-0.6-1-1
		c0-0.1,0-0.3,0-0.3l0-0.2L471.9,104.1z M447.7,107.5v-5.1h9.8c0.2,0,0.4,0.1,0.6,0.2c0.2,0.2,0.3,0.5,0.3,1h0.6v-6.7h-0.6
		c0,0.5-0.1,0.8-0.3,1s-0.4,0.2-0.6,0.2h-9.8v-4.2h15.2c0.2,0,0.4,0.1,0.6,0.2c0.2,0.2,0.3,0.5,0.3,1h0.6v-7h-0.6
		c0,0.5-0.1,0.8-0.3,0.9c-0.2,0.1-0.4,0.2-0.6,0.2h-23.6v0.6c0.4,0,0.7,0.1,1,0.2c0.3,0.1,0.4,0.3,0.4,0.7v19.7
		c0,0.4-0.1,0.6-0.4,0.7c-0.3,0.1-0.6,0.2-1,0.2v0.6h23.2c0.4,0,0.7,0,0.9,0.1c0.2,0.1,0.4,0.3,0.5,0.8h0.5v-6.8h-0.6
		c-0.2,0.9-0.7,1.3-1.3,1.3H447.7z M412,101.8h5.1c0.1,0.2,0.3,0.5,0.7,1c0.3,0.5,0.8,1,1.2,1.7s1,1.3,1.5,1.9
		c0.5,0.7,1,1.3,1.4,1.9c0.4,0.6,0.8,1.1,1,1.5c0.3,0.4,0.4,0.7,0.4,0.7c0,0.6-0.4,0.9-1.1,0.9v0.6H433v-0.6c-0.6,0-1.1-0.3-1.5-0.9
		l-6.1-8.6c2.1-0.6,3.9-1.6,5.3-2.9c1.4-1.4,2.1-3.2,2.1-5.6c0-2.9-0.9-5.1-2.6-6.5c-1.7-1.4-4.5-2.1-8.4-2.1h-19v0.6
		c0.7,0.1,1.1,0.2,1.2,0.3s0.2,0.4,0.2,0.6v24.2c0,0.2-0.1,0.4-0.2,0.6c-0.2,0.2-0.6,0.3-1.2,0.3v0.6h10.7v-0.6
		c-0.7-0.1-1.1-0.2-1.2-0.3c-0.2-0.2-0.2-0.4-0.2-0.6V101.8z M412,96.3v-5.7h8.7c1.5,0,2.6,0.3,3.1,0.9c0.6,0.6,0.9,1.2,0.9,2
		c0,0.8-0.3,1.4-0.9,2c-0.6,0.6-1.6,0.9-3.1,0.9H412z M362.6,107.5v-5.1h9.8c0.2,0,0.4,0.1,0.6,0.2c0.2,0.2,0.3,0.5,0.3,1h0.6v-6.7
		h-0.6c0,0.5-0.1,0.8-0.3,1s-0.4,0.2-0.6,0.2h-9.8v-4.2h15.2c0.2,0,0.4,0.1,0.6,0.2c0.2,0.2,0.3,0.5,0.3,1h0.6v-7h-0.6
		c0,0.5-0.1,0.8-0.3,0.9c-0.2,0.1-0.4,0.2-0.6,0.2h-23.6v0.6c0.4,0,0.7,0.1,1,0.2c0.3,0.1,0.4,0.3,0.4,0.7v19.7
		c0,0.4-0.1,0.6-0.4,0.7c-0.3,0.1-0.6,0.2-1,0.2v0.6h23.2c0.4,0,0.7,0,0.9,0.1c0.2,0.1,0.4,0.3,0.5,0.8h0.5v-6.8h-0.6
		c-0.2,0.9-0.7,1.3-1.3,1.3H362.6z M326.6,110.5c0,0.4-0.1,0.6-0.4,0.7c-0.3,0.1-0.6,0.2-1,0.2v0.6h22.6c0.2,0,0.4,0.1,0.6,0.2
		c0.2,0.1,0.3,0.4,0.3,1h0.6v-7.7h-0.6c0,0.6-0.1,0.9-0.3,1.1c-0.2,0.2-0.4,0.2-0.6,0.2h-14.2v-16c0-0.4,0.1-0.6,0.4-0.7
		c0.3-0.1,0.6-0.2,1-0.2v-0.6h-9.7v0.6c0.4,0,0.7,0.1,1,0.2c0.3,0.1,0.4,0.3,0.4,0.7V110.5z M296.8,89.2c-0.2,0-0.4-0.1-0.6-0.2
		c-0.2-0.1-0.3-0.4-0.3-0.9h-0.6v7.6h0.6c0-0.5,0.1-0.8,0.3-0.9c0.2-0.1,0.4-0.2,0.6-0.2h7.4v16c0,0.4-0.1,0.6-0.4,0.7
		c-0.3,0.1-0.5,0.2-0.8,0.2v0.6h9.3v-0.6c-0.3,0-0.5-0.1-0.8-0.2c-0.3-0.1-0.4-0.3-0.4-0.7v-16h7.4c0.2,0,0.4,0.1,0.6,0.2
		c0.2,0.1,0.3,0.5,0.3,0.9h0.6v-7.6h-0.6c0,0.5-0.1,0.8-0.3,0.9c-0.2,0.1-0.4,0.2-0.6,0.2H296.8z M268,89.2c-0.2,0-0.4-0.1-0.6-0.2
		c-0.2-0.1-0.3-0.4-0.3-0.9h-0.6v7.6h0.6c0-0.5,0.1-0.8,0.3-0.9c0.2-0.1,0.4-0.2,0.6-0.2h7.4v16c0,0.4-0.1,0.6-0.4,0.7
		c-0.3,0.1-0.5,0.2-0.8,0.2v0.6h9.3v-0.6c-0.3,0-0.5-0.1-0.8-0.2c-0.3-0.1-0.4-0.3-0.4-0.7v-16h7.4c0.2,0,0.4,0.1,0.6,0.2
		c0.2,0.1,0.3,0.5,0.3,0.9h0.6v-7.6h-0.6c0,0.5-0.1,0.8-0.3,0.9c-0.2,0.1-0.4,0.2-0.6,0.2H268z M250.8,103.7h-8.6l4.3-9.1
		L250.8,103.7z M253.4,112.1h8.6v-0.6c-0.2,0-0.4,0-0.6-0.1c-0.2-0.1-0.3-0.2-0.4-0.4c-0.4-0.9-0.9-2-1.5-3.3
		c-0.6-1.3-1.3-2.7-2-4.2c-0.7-1.5-1.4-3-2.1-4.5c-0.7-1.5-1.4-2.8-1.9-4.1c-0.6-1.2-1.1-2.2-1.4-3.1c-0.4-0.8-0.5-1.3-0.5-1.4
		c0-0.3,0.2-0.5,0.7-0.5v-0.6h-10.9v0.6c0.4,0,0.7,0.2,0.7,0.5c0,0.2-0.3,0.9-0.8,2.2c-0.6,1.3-1.3,2.9-2.1,4.8s-1.8,4.1-2.9,6.4
		c-1.1,2.4-2.1,4.8-3.2,7.2c-0.1,0.2-0.2,0.3-0.4,0.4c-0.2,0.1-0.4,0.1-0.6,0.1v0.6h7.8v-0.6c-0.1,0-0.2,0-0.4-0.1
		c-0.2,0-0.3-0.2-0.3-0.4c0-0.1,0.1-0.4,0.2-0.6c0.1-0.3,0.3-0.6,0.5-1c0.2-0.3,0.3-0.7,0.5-1c0.2-0.3,0.3-0.6,0.3-0.9h12
		c0.1,0.2,0.2,0.5,0.4,0.9c0.2,0.3,0.3,0.7,0.5,1c0.2,0.3,0.3,0.7,0.4,1c0.1,0.3,0.2,0.5,0.2,0.6c0,0.2-0.1,0.4-0.3,0.4
		c-0.2,0-0.3,0.1-0.4,0.1V112.1z M221.9,94.8l4.7-8.6l-0.6-0.2c-0.2,0.3-0.5,0.4-0.8,0.4c-0.3,0-0.7-0.1-1.2-0.3
		c-0.6-0.2-1.3-0.4-2.3-0.7c-1-0.3-2.3-0.5-3.8-0.8c-1.5-0.2-3.3-0.3-5.4-0.3s-4.1,0.3-6.2,0.9c-2,0.6-3.9,1.5-5.5,2.6
		c-1.6,1.2-2.9,2.6-3.9,4.4c-1,1.7-1.5,3.8-1.5,6.1c0,2.3,0.5,4.4,1.5,6.1c1,1.7,2.3,3.2,3.9,4.4c1.6,1.2,3.5,2,5.5,2.5
		c2,0.5,4.1,0.8,6.2,0.8c1.9,0,3.7-0.1,5.2-0.4s2.9-0.6,4.1-0.9c1.2-0.3,2.1-0.6,2.8-0.9c0.7-0.3,1.2-0.4,1.5-0.4
		c0.2,0,0.3,0,0.4,0.1c0.1,0.1,0.2,0.2,0.3,0.3l0.6-0.4l-5.3-8.2l-0.6,0.4c0.1,0.1,0.1,0.3,0.2,0.4c0.1,0.1,0.1,0.2,0.1,0.4
		c0,0.4-0.4,0.7-1.1,1.1c-0.7,0.3-1.6,0.7-2.6,0.9c-1,0.3-1.9,0.5-2.9,0.6c-1,0.2-1.7,0.2-2.1,0.2c-1,0-2.1-0.1-3.3-0.4
		c-1.1-0.2-2.2-0.6-3.1-1.2c-1-0.6-1.7-1.3-2.3-2.2c-0.6-0.9-0.9-2-0.9-3.3c0-1.3,0.3-2.4,0.9-3.3c0.6-0.9,1.4-1.7,2.3-2.2
		c1-0.6,2-1,3.1-1.2c1.1-0.2,2.2-0.4,3.3-0.4c1.1,0,2.2,0.1,3.2,0.2s1.9,0.3,2.7,0.6c0.8,0.2,1.4,0.5,1.9,0.8
		c0.5,0.3,0.7,0.6,0.7,0.8c0,0.2,0,0.3,0,0.4c0,0.1,0,0.2-0.1,0.3L221.9,94.8z"/>
</g>
<g id="XMLID_61_">
	<g id="XMLID_138_">
		<path class="st1" d="M150.8,173.8c-17.3,0-31.4-14.1-31.4-31.4c0-17.3,14.1-31.4,31.4-31.4c7.8,0,15,2.9,20.5,7.6l7.8-11.6
			c-7.7-6.2-17.6-9.9-28.3-9.9c-1.5,0-3,0.1-4.5,0.2l-2.2-5.5c11.3-8.2,18.7-21.6,18.7-36.6c0-25-20.3-45.3-45.3-45.3
			c-14.7,0-29.5,9.4-29.5,9.4v55.1C82.8,72.2,77,71,70.9,71c-25,0-45.3,20.3-45.3,45.3c0,25,20.3,45.3,45.3,45.3
			c10.7,0,20.5-3.7,28.3-9.9l-7.8-11.6c-5.5,4.7-12.6,7.6-20.5,7.6c-17.3,0-31.4-14.1-31.4-31.4c0-17.3,14.1-31.4,31.4-31.4
			c6.3,0,12.2,1.9,17.1,5.1v23.6h16V98.5c4.3,1.3,8.8,2.1,13.5,2.1c3.8,0,7.6-0.5,11.1-1.4l1.2,3.1c-14.5,7.6-24.4,22.7-24.4,40.2
			c0,25,20.3,45.3,45.3,45.3c10.7,0,20.5-3.7,28.3-9.9l-7.8-11.6C165.7,171,158.6,173.8,150.8,173.8z M117.5,86.6
			c-4.8,0-9.4-1.1-13.5-3V26.9c4.1-1.9,8.7-3,13.5-3c17.3,0,31.4,14.1,31.4,31.4S134.8,86.6,117.5,86.6z"/>
		<path class="st2" d="M150.8,173.8c-17.3,0-31.4-14.1-31.4-31.4c0-17.3,14.1-31.4,31.4-31.4c7.8,0,15,2.9,20.5,7.6l7.8-11.6
			c-7.7-6.2-17.6-9.9-28.3-9.9c-1.5,0-3,0.1-4.5,0.2l-2.2-5.5c11.3-8.2,18.7-21.6,18.7-36.6c0-25-20.3-45.3-45.3-45.3
			c-14.7,0-29.5,9.4-29.5,9.4v55.1C82.8,72.2,77,71,70.9,71c-25,0-45.3,20.3-45.3,45.3c0,25,20.3,45.3,45.3,45.3
			c10.7,0,20.5-3.7,28.3-9.9l-7.8-11.6c-5.5,4.7-12.6,7.6-20.5,7.6c-17.3,0-31.4-14.1-31.4-31.4c0-17.3,14.1-31.4,31.4-31.4
			c6.3,0,12.2,1.9,17.1,5.1v23.6h16V98.5c4.3,1.3,8.8,2.1,13.5,2.1c3.8,0,7.6-0.5,11.1-1.4l1.2,3.1c-14.5,7.6-24.4,22.7-24.4,40.2
			c0,25,20.3,45.3,45.3,45.3c10.7,0,20.5-3.7,28.3-9.9l-7.8-11.6C165.7,171,158.6,173.8,150.8,173.8z M117.5,86.6
			c-4.8,0-9.4-1.1-13.5-3V26.9c4.1-1.9,8.7-3,13.5-3c17.3,0,31.4,14.1,31.4,31.4S134.8,86.6,117.5,86.6z"/>
		<path class="st3" d="M150.8,173.8c-17.3,0-31.4-14.1-31.4-31.4c0-17.3,14.1-31.4,31.4-31.4c7.8,0,15,2.9,20.5,7.6l7.8-11.6
			c-7.7-6.2-17.6-9.9-28.3-9.9c-1.5,0-3,0.1-4.5,0.2l-2.2-5.5c11.3-8.2,18.7-21.6,18.7-36.6c0-25-20.3-45.3-45.3-45.3
			c-14.7,0-29.5,9.4-29.5,9.4v55.1C82.8,72.2,77,71,70.9,71c-25,0-45.3,20.3-45.3,45.3c0,25,20.3,45.3,45.3,45.3
			c10.7,0,20.5-3.7,28.3-9.9l-7.8-11.6c-5.5,4.7-12.6,7.6-20.5,7.6c-17.3,0-31.4-14.1-31.4-31.4c0-17.3,14.1-31.4,31.4-31.4
			c6.3,0,12.2,1.9,17.1,5.1v23.6h16V98.5c4.3,1.3,8.8,2.1,13.5,2.1c3.8,0,7.6-0.5,11.1-1.4l1.2,3.1c-14.5,7.6-24.4,22.7-24.4,40.2
			c0,25,20.3,45.3,45.3,45.3c10.7,0,20.5-3.7,28.3-9.9l-7.8-11.6C165.7,171,158.6,173.8,150.8,173.8z M117.5,86.6
			c-4.8,0-9.4-1.1-13.5-3V26.9c4.1-1.9,8.7-3,13.5-3c17.3,0,31.4,14.1,31.4,31.4S134.8,86.6,117.5,86.6z"/>
	</g>
</g>
</svg>
